<svg xmlns="http://www.w3.org/2000/svg" viewBox="0 0 32 32" width="32" height="32">
  <style>
    @media (prefers-color-scheme: dark) {
      .outer { fill: #e8a878; }
      .inner { fill: #f0c8a0; }
    }
  </style>
  <!-- Left petal: wide rounded top, narrows toward base, leans left -->
  <path class="outer" fill="#C4704A" d="
    M14.5 21
    Q13.5 17.5 11 13
    Q9 9.5 7.5 7.5
    Q6.5 6 7.5 5
    Q8.5 4.5 10.5 5.5
    Q13 7 14.5 11
    Q16 15.5 15.5 20
    z
  "/>
  <!-- Center petal: tallest, wide rounded top, lighter -->
  <path class="inner" fill="#d4a574" d="
    M16 20.5
    Q14.5 17 14 12.5
    Q13.5 8 15 5
    Q16 3.5 17 5
    Q18.5 8 18 12.5
    Q17.5 17 16 20.5
    z
  "/>
  <!-- Right petal: wide rounded top, narrows toward base, leans right -->
  <path class="outer" fill="#C4704A" d="
    M17.5 21
    Q16.5 20 16.5 15.5
    Q17.5 11 19.5 7
    Q21.5 4.5 23 5
    Q24.5 5.5 24.5 7
    Q24 9 22 13
    Q19.5 17.5 17.5 21
    z
  "/>
  <!-- Pistil -->
  <ellipse class="inner" fill="#d4a574" cx="16" cy="23.5" rx="2" ry="1.2"/>
</svg>
