<svg xmlns="http://www.w3.org/2000/svg" viewBox="0 0 32 32" width="32" height="32">
  <style>
    @media (prefers-color-scheme: dark) {
      .back { fill: #d4966e; }
      .front { fill: #e8a878; }
      .glow { fill: #f0c8a0; }
    }
  </style>
  <!-- Back left petal -->
  <path class="back" fill="#a85a3a" d="M14 25 C11.5 22 8 17.5 5.5 14.5 C3.5 12 2.8 10 3.8 9 C4.8 8 6.8 8.5 9.5 11 C12.5 13.5 14.5 18.5 15.2 23 L16 25z"/>
  <!-- Back right petal -->
  <path class="back" fill="#a85a3a" d="M18 25 L16 25 L16.8 23 C17.5 18.5 19.5 13.5 22.5 11 C25.2 8.5 27.2 8 28.2 9 C29.2 10 28.5 12 26.5 14.5 C24 17.5 20.5 22 18 25z"/>
  <!-- Front left petal -->
  <path class="front" fill="#C4704A" d="M15 25 C14 21 12 16.5 10 13 C8 10 6.8 8.5 6.2 8 C6.8 7.5 8.2 7.5 10.5 9.8 C13 12.5 15 18 15.5 23z"/>
  <!-- Front right petal -->
  <path class="front" fill="#C4704A" d="M17 25 L16.5 23 C17 18 19 12.5 21.5 9.8 C23.8 7.5 25.2 7.5 25.8 8 C25.2 8.5 24 10 22 13 C20 16.5 18 21 17 25z"/>
  <!-- Center glow (wider) -->
  <path class="glow" fill="#d4a574" d="M16 24.5 C14.8 20 13.8 15.5 13.8 12 C13.8 9 14.5 7.5 16 7 C17.5 7.5 18.2 9 18.2 12 C18.2 15.5 17.2 20 16 24.5z"/>
</svg>
