<svg xmlns="http://www.w3.org/2000/svg" width="32" height="32" viewBox="0 0 1280 1048"><defs><linearGradient id="a" x1="0" x2="0" y1="0" y2="1"><stop offset="0" stop-color="#d4a574"/><stop offset="1" stop-color="#a85a3a"/></linearGradient></defs><path d="M4879 10467c-85-32-147-87-211-188-81-128-156-330-197-534-25-121-48-215-116-470-156-589-235-1095-253-1632l-7-212-100 80c-534 429-1246 699-2085 789-159 17-378 30-510 30-69 0-161 7-205 15-44 9-146 18-226 22-166 7-268-10-319-53-15-13-35-24-44-24-37 0-33-100 9-226 56-168 206-478 378-784 470-835 839-1401 1186-1820 53-63 164-185 248-271 111-113 152-161 147-173-8-20-6-20-79 3-162 51-439 91-630 91-283 0-602-74-804-187-35-19-138-86-230-147-176-118-273-175-516-303-221-117-267-150-302-217-15-30-15-41 6-174 18-115 130-239 393-437 565-424 1452-838 2278-1063 520-142 928-156 1360-47 52 13 104 27 114 31 16 6 14 0-11-37-250-370-428-945-493-1594-18-185-28-360-20-368 4-5 63-20 131-34 108-22 151-26 329-27 180-1 219 2 320 23 212 44 400 121 570 235 66 44 86 53 92 43 20-36 151-190 242-285 171-177 443-400 562-461 154-78 316-79 458-3 65 34 189 159 287 287 42 55 177 210 299 345 319 351 538 617 635 772l29 47 121-118c478-468 1075-753 1740-832 139-16 477-16 606 0l106 14 6 246c4 135 2 311-3 391-46 719-372 1295-949 1679-45 30-79 56-75 58 5 1 77 11 159 23 362 50 810 192 1283 406 868 393 1510 853 1880 1346 173 231 304 511 327 698 6 53 5 56-22 71-15 9-86 50-158 91-495 285-966 476-1378 558-143 29-255 40-404 40h-133l67 103c369 570 730 1427 918 2176 36 143 36 144 17 170-11 15-41 34-73 45-176 61-969-28-1552-175-503-126-888-307-1190-560-94-78-212-206-267-290l-27-40-21 138c-12 76-35 233-52 348-195 1317-429 2203-613 2316-41 24-58 24-92-3-19-15-42-22-74-22-106-2-250-129-376-331-27-44-89-134-138-199-93-126-221-316-302-451-54-90-195-355-195-367 0-21-19-1-62 65-117 181-339 424-558 611-149 128-362 287-630 471-118 82-240 166-270 188-123 91-246 126-331 94" style="fill:url(#a)" transform="matrix(.1 0 0 -.1 0 1048)"/></svg>