<svg xmlns="http://www.w3.org/2000/svg" viewBox="0 0 32 32" width="32" height="32">
  <style>
    @media (prefers-color-scheme: dark) {
      .outer { fill: #e8a878; }
      .mid { fill: #e0956a; }
      .base { fill: #f0c8a0; }
    }
  </style>
  <!-- Far left petal: wide, shallow, spoon-shaped -->
  <path class="outer" fill="#C4704A" d="
    M14.5 22 Q11 21 7.5 18 Q4 15 3 12.5 Q2 10.5 3.5 9.5 Q5.5 8.5 9 11 Q12.5 14 14.5 18 Q15.5 20.5 14.5 22z
  "/>
  <!-- Inner left petal -->
  <path class="mid" fill="#b5613e" d="
    M15.5 21.5 Q13.5 18.5 11.5 14 Q9.5 9.5 9.5 7.5 Q9.5 5.5 11.5 6 Q13.5 6.5 15 11 Q16 15 16 19 Q16 21 15.5 21.5z
  "/>
  <!-- Center petal: widest, most upright, lightest -->
  <path class="base" fill="#d4a574" d="
    M16 21 Q14.5 17 14 13 Q13.5 9 15 7 Q16 5.5 17 7 Q18.5 9 18 13 Q17.5 17 16 21z
  "/>
  <!-- Inner right petal -->
  <path class="mid" fill="#b5613e" d="
    M16.5 21.5 Q16 21 16 19 Q16 15 17 11 Q18.5 6.5 20.5 6 Q22.5 5.5 22.5 7.5 Q22.5 9.5 20.5 14 Q18.5 18.5 16.5 21.5z
  "/>
  <!-- Far right petal: wide, shallow, spoon-shaped -->
  <path class="outer" fill="#C4704A" d="
    M17.5 22 Q16.5 20.5 17.5 18 Q19.5 14 23 11 Q26.5 8.5 28.5 9.5 Q30 10.5 29 12.5 Q28 15 24.5 18 Q21 21 17.5 22z
  "/>
</svg>
