<svg xmlns="http://www.w3.org/2000/svg" viewBox="0 0 32 32" width="32" height="32">
  <style>
    .mark { fill: #C4704A; }
    @media (prefers-color-scheme: dark) {
      .mark { fill: #e8a878; }
    }
  </style>
  <path class="mark" d="
    M16.8 16c-.2-2.2-.6-5.2 0-7.5.3-1.3.8-2.4 1.5-2.8.5-.3 1 0 1.1.6.2.8 0 2-.5 3.4-.5 1.6-1.2 3.2-2 4.6l-.6 1-.3.5

    M17 15.6c1.8-1.2 4.2-2.6 6.2-2.8 1.1-.1 2 .2 2.4.8.3.5.1 1.1-.5 1.6-.8.6-1.8 1-3 1.1-1.4.2-2.8 0-4-.3l-1-.3-.3-.1

    M16.8 16.6c1.8 1 3.8 2.6 4.8 4.2.5.8.8 1.6.6 2.2-.2.5-.6.7-1.2.5-.7-.3-1.4-1-2-1.8-.8-1.1-1.4-2.4-1.8-3.6l-.3-1-.1-.4

    M15.6 17c-.4 2-.6 4.6-1.4 6.4-.4.9-1 1.7-1.6 1.9-.5.2-1-.1-1.1-.7-.1-.8.2-1.8.7-2.9.6-1.2 1.5-2.5 2.4-3.5l.6-.7.3-.3

    M15 16c-2 .4-4.6.4-6.4-.2-1-.3-1.7-.8-2-1.4-.2-.5 0-1 .6-1.3.7-.3 1.7-.3 2.8 0 1.3.3 2.6.9 3.6 1.6l.8.5.3.3

    M15.4 15.2c-1.2-1.4-2.4-3.6-2.6-5.4-.1-1 .1-1.8.6-2.3.4-.3.9-.3 1.3.1.5.5.8 1.4.9 2.5.1 1.3 0 2.7-.3 3.9l-.2.8v.3
  "/>
</svg>
