<svg xmlns="http://www.w3.org/2000/svg" viewBox="0 0 32 32" width="32" height="32">
  <style>
    .mark { fill: #C4704A; }
    @media (prefers-color-scheme: dark) {
      .mark { fill: #e8a878; }
    }
  </style>
  <!-- Petal 1: 12 o'clock, tilted slightly right -->
  <path class="mark" d="M16.5 14 Q17 10.5 17.8 8 18.5 6 19.5 5.5 20.5 5.2 21 6.5 21.3 8 20 10.5 18.5 13 16.5 14z"/>
  <!-- Petal 2: ~2:30, pointing right -->
  <path class="mark" d="M17.5 16 Q20 14.5 22.5 14 24.5 13.5 25.5 14.5 26 15.8 24.5 17 23 18 20 18.5 17.8 18.5 17.5 16z"/>
  <!-- Petal 3: ~5 o'clock, pointing down-right -->
  <path class="mark" d="M16.5 18 Q17.5 20.5 17.5 23 17.5 25 16.2 25.8 15 26.2 14 25 13.2 23.5 14 21 14.8 18.5 16.5 18z"/>
  <!-- Petal 4: ~7:30, pointing down-left -->
  <path class="mark" d="M14.5 17.5 Q12 19 10 19.5 8 19.8 7 18.8 6.2 17.5 7.5 16.2 8.5 15.2 11 14.8 13.5 14.5 14.5 17.5z"/>
  <!-- Petal 5: ~10 o'clock, pointing up-left (slightly smaller) -->
  <path class="mark" d="M14.8 15 Q13 13 11.5 11 10.5 9.5 11 8.2 11.5 7 13 7.5 14.2 8 15 10 15.5 12 14.8 15z"/>
  <!-- Center dot -->
  <circle class="mark" cx="16" cy="16.5" r="1.8"/>
</svg>
